<svg xmlns="http://www.w3.org/2000/svg" xmlns:xlink="http://www.w3.org/1999/xlink" width="1080" zoomAndPan="magnify" viewBox="0 0 810 225" height="300" preserveAspectRatio="xMidYMid meet" version="1.0"><defs><g/><clipPath id="483a3eddb3"><path d="M 437.480469 2.800781 L 577.730469 2.800781 L 577.730469 130 L 437.480469 130 Z M 437.480469 2.800781 " clip-rule="nonzero"/></clipPath></defs><g clip-path="url(#483a3eddb3)"><path fill="#05b0fc" d="M 541.109375 16.226562 L 511.023438 16.226562 L 511.023438 6.195312 C 511.023438 5.753906 510.9375 5.328125 510.769531 4.917969 C 510.597656 4.507812 510.359375 4.144531 510.042969 3.832031 C 509.730469 3.519531 509.371094 3.277344 508.960938 3.109375 C 508.550781 2.9375 508.125 2.851562 507.679688 2.851562 C 507.238281 2.851562 506.8125 2.9375 506.402344 3.109375 C 505.992188 3.277344 505.628906 3.519531 505.316406 3.832031 C 505.003906 4.144531 504.761719 4.507812 504.59375 4.917969 C 504.421875 5.328125 504.335938 5.753906 504.335938 6.195312 L 504.335938 16.226562 L 474.25 16.226562 C 473.703125 16.226562 473.160156 16.253906 472.613281 16.308594 C 472.070312 16.359375 471.527344 16.441406 470.992188 16.546875 C 470.453125 16.65625 469.925781 16.789062 469.402344 16.949219 C 468.878906 17.105469 468.363281 17.292969 467.859375 17.5 C 467.351562 17.710938 466.859375 17.945312 466.375 18.203125 C 465.894531 18.460938 465.425781 18.742188 464.96875 19.046875 C 464.515625 19.351562 464.074219 19.675781 463.652344 20.023438 C 463.230469 20.371094 462.824219 20.738281 462.4375 21.125 C 462.050781 21.511719 461.683594 21.917969 461.335938 22.339844 C 460.988281 22.761719 460.664062 23.203125 460.359375 23.65625 C 460.054688 24.113281 459.773438 24.582031 459.515625 25.0625 C 459.257812 25.546875 459.023438 26.039062 458.8125 26.546875 C 458.605469 27.050781 458.417969 27.566406 458.261719 28.089844 C 458.101562 28.613281 457.96875 29.144531 457.859375 29.679688 C 457.753906 30.214844 457.671875 30.757812 457.617188 31.300781 C 457.566406 31.847656 457.539062 32.390625 457.535156 32.9375 L 457.535156 93.113281 C 457.539062 93.660156 457.566406 94.207031 457.617188 94.75 C 457.671875 95.292969 457.753906 95.835938 457.859375 96.371094 C 457.96875 96.910156 458.101562 97.4375 458.261719 97.960938 C 458.417969 98.484375 458.605469 99 458.8125 99.507812 C 459.023438 100.011719 459.257812 100.503906 459.515625 100.988281 C 459.773438 101.46875 460.054688 101.9375 460.359375 102.394531 C 460.664062 102.847656 460.988281 103.289062 461.335938 103.710938 C 461.683594 104.132812 462.050781 104.539062 462.4375 104.925781 C 462.824219 105.3125 463.230469 105.679688 463.652344 106.027344 C 464.074219 106.375 464.515625 106.699219 464.96875 107.003906 C 465.425781 107.308594 465.894531 107.589844 466.375 107.847656 C 466.859375 108.105469 467.351562 108.339844 467.859375 108.550781 C 468.363281 108.757812 468.878906 108.945312 469.402344 109.101562 C 469.925781 109.261719 470.453125 109.394531 470.992188 109.503906 C 471.527344 109.609375 472.070312 109.691406 472.613281 109.746094 C 473.160156 109.796875 473.703125 109.824219 474.25 109.828125 L 492.519531 109.828125 L 504.898438 128.394531 C 505.050781 128.625 505.230469 128.832031 505.433594 129.015625 C 505.636719 129.199219 505.859375 129.359375 506.101562 129.488281 C 506.347656 129.617188 506.601562 129.714844 506.867188 129.785156 C 507.132812 129.851562 507.40625 129.882812 507.679688 129.882812 C 507.957031 129.882812 508.226562 129.851562 508.492188 129.78125 C 508.761719 129.714844 509.015625 129.617188 509.257812 129.488281 C 509.5 129.359375 509.722656 129.199219 509.925781 129.015625 C 510.132812 128.832031 510.308594 128.625 510.460938 128.394531 L 522.839844 109.828125 L 541.109375 109.828125 C 541.65625 109.824219 542.203125 109.796875 542.746094 109.746094 C 543.292969 109.691406 543.832031 109.609375 544.371094 109.503906 C 544.90625 109.394531 545.4375 109.261719 545.960938 109.101562 C 546.484375 108.945312 547 108.757812 547.503906 108.550781 C 548.007812 108.339844 548.503906 108.105469 548.984375 107.847656 C 549.46875 107.589844 549.9375 107.308594 550.390625 107.003906 C 550.847656 106.699219 551.285156 106.375 551.710938 106.027344 C 552.132812 105.679688 552.539062 105.3125 552.925781 104.925781 C 553.3125 104.539062 553.679688 104.132812 554.027344 103.710938 C 554.371094 103.289062 554.699219 102.847656 555.003906 102.394531 C 555.308594 101.9375 555.589844 101.46875 555.847656 100.988281 C 556.105469 100.503906 556.339844 100.011719 556.546875 99.507812 C 556.757812 99 556.941406 98.484375 557.101562 97.960938 C 557.261719 97.4375 557.394531 96.910156 557.5 96.371094 C 557.609375 95.835938 557.6875 95.292969 557.742188 94.75 C 557.796875 94.207031 557.824219 93.660156 557.824219 93.113281 L 557.824219 32.9375 C 557.824219 32.390625 557.796875 31.847656 557.742188 31.300781 C 557.6875 30.757812 557.609375 30.214844 557.5 29.679688 C 557.394531 29.144531 557.261719 28.613281 557.101562 28.089844 C 556.941406 27.566406 556.757812 27.050781 556.546875 26.546875 C 556.339844 26.039062 556.105469 25.546875 555.847656 25.0625 C 555.589844 24.582031 555.308594 24.113281 555.003906 23.65625 C 554.699219 23.203125 554.371094 22.761719 554.027344 22.339844 C 553.679688 21.917969 553.3125 21.511719 552.925781 21.125 C 552.539062 20.738281 552.132812 20.371094 551.710938 20.023438 C 551.285156 19.675781 550.847656 19.351562 550.390625 19.046875 C 549.9375 18.742188 549.46875 18.460938 548.984375 18.203125 C 548.503906 17.945312 548.007812 17.710938 547.503906 17.5 C 547 17.292969 546.484375 17.105469 545.960938 16.949219 C 545.4375 16.789062 544.90625 16.65625 544.371094 16.546875 C 543.832031 16.441406 543.292969 16.359375 542.746094 16.308594 C 542.203125 16.253906 541.65625 16.226562 541.109375 16.226562 Z M 551.136719 93.113281 C 551.136719 93.769531 551.074219 94.421875 550.945312 95.066406 C 550.816406 95.714844 550.625 96.339844 550.371094 96.949219 C 550.121094 97.554688 549.8125 98.132812 549.445312 98.679688 C 549.078125 99.226562 548.664062 99.734375 548.199219 100.199219 C 547.734375 100.664062 547.226562 101.082031 546.679688 101.445312 C 546.132812 101.8125 545.554688 102.121094 544.945312 102.375 C 544.335938 102.625 543.710938 102.816406 543.066406 102.945312 C 542.421875 103.074219 541.769531 103.140625 541.109375 103.140625 L 521.050781 103.140625 C 520.492188 103.140625 519.96875 103.273438 519.476562 103.539062 C 518.984375 103.800781 518.582031 104.164062 518.269531 104.628906 L 507.679688 120.515625 L 497.089844 104.628906 C 496.78125 104.164062 496.378906 103.800781 495.886719 103.539062 C 495.394531 103.273438 494.867188 103.140625 494.308594 103.140625 L 474.25 103.140625 C 473.59375 103.140625 472.941406 103.074219 472.296875 102.945312 C 471.648438 102.816406 471.023438 102.625 470.414062 102.375 C 469.808594 102.121094 469.230469 101.8125 468.683594 101.445312 C 468.136719 101.082031 467.628906 100.664062 467.164062 100.199219 C 466.699219 99.734375 466.28125 99.226562 465.917969 98.679688 C 465.550781 98.132812 465.242188 97.554688 464.988281 96.949219 C 464.738281 96.339844 464.546875 95.714844 464.417969 95.066406 C 464.289062 94.421875 464.222656 93.769531 464.222656 93.113281 L 464.222656 83.082031 L 551.136719 83.082031 Z M 551.136719 76.398438 L 464.222656 76.398438 L 464.222656 32.9375 C 464.222656 32.28125 464.289062 31.628906 464.417969 30.984375 C 464.546875 30.339844 464.738281 29.710938 464.988281 29.101562 C 465.242188 28.496094 465.550781 27.917969 465.917969 27.371094 C 466.28125 26.824219 466.699219 26.316406 467.164062 25.851562 C 467.628906 25.386719 468.136719 24.96875 468.683594 24.605469 C 469.230469 24.238281 469.808594 23.929688 470.414062 23.675781 C 471.023438 23.425781 471.648438 23.234375 472.296875 23.105469 C 472.941406 22.976562 473.59375 22.910156 474.25 22.910156 L 541.109375 22.910156 C 541.769531 22.910156 542.421875 22.976562 543.066406 23.105469 C 543.710938 23.234375 544.335938 23.425781 544.945312 23.675781 C 545.554688 23.929688 546.132812 24.238281 546.679688 24.605469 C 547.226562 24.96875 547.734375 25.386719 548.199219 25.851562 C 548.664062 26.316406 549.078125 26.824219 549.445312 27.371094 C 549.8125 27.917969 550.121094 28.496094 550.371094 29.101562 C 550.625 29.710938 550.816406 30.339844 550.945312 30.984375 C 551.074219 31.628906 551.136719 32.28125 551.136719 32.9375 Z M 494.308594 52.996094 C 494.308594 53.4375 494.265625 53.871094 494.179688 54.300781 C 494.09375 54.730469 493.96875 55.148438 493.800781 55.554688 C 493.632812 55.960938 493.425781 56.347656 493.183594 56.710938 C 492.9375 57.078125 492.660156 57.414062 492.351562 57.722656 C 492.039062 58.035156 491.703125 58.3125 491.335938 58.554688 C 490.972656 58.800781 490.585938 59.003906 490.183594 59.171875 C 489.777344 59.34375 489.359375 59.46875 488.925781 59.554688 C 488.496094 59.640625 488.0625 59.683594 487.625 59.683594 C 487.183594 59.683594 486.75 59.640625 486.320312 59.554688 C 485.886719 59.46875 485.46875 59.34375 485.066406 59.171875 C 484.660156 59.003906 484.273438 58.800781 483.910156 58.554688 C 483.542969 58.3125 483.207031 58.035156 482.894531 57.722656 C 482.585938 57.414062 482.308594 57.078125 482.0625 56.710938 C 481.820312 56.347656 481.613281 55.960938 481.445312 55.554688 C 481.277344 55.148438 481.152344 54.730469 481.066406 54.300781 C 480.980469 53.871094 480.9375 53.4375 480.9375 52.996094 C 480.9375 52.558594 480.980469 52.125 481.066406 51.691406 C 481.152344 51.261719 481.277344 50.84375 481.445312 50.4375 C 481.613281 50.03125 481.820312 49.648438 482.0625 49.28125 C 482.308594 48.917969 482.585938 48.578125 482.894531 48.269531 C 483.207031 47.957031 483.542969 47.683594 483.910156 47.4375 C 484.273438 47.195312 484.660156 46.988281 485.066406 46.820312 C 485.46875 46.652344 485.886719 46.523438 486.320312 46.441406 C 486.75 46.355469 487.183594 46.3125 487.625 46.3125 C 488.0625 46.3125 488.496094 46.355469 488.925781 46.441406 C 489.359375 46.523438 489.777344 46.652344 490.183594 46.820312 C 490.585938 46.988281 490.972656 47.195312 491.335938 47.4375 C 491.703125 47.683594 492.039062 47.957031 492.351562 48.269531 C 492.660156 48.578125 492.9375 48.917969 493.183594 49.28125 C 493.425781 49.648438 493.632812 50.03125 493.800781 50.4375 C 493.96875 50.84375 494.09375 51.261719 494.179688 51.691406 C 494.265625 52.125 494.308594 52.558594 494.308594 52.996094 Z M 534.425781 52.996094 C 534.425781 53.4375 534.382812 53.871094 534.296875 54.300781 C 534.210938 54.730469 534.082031 55.148438 533.914062 55.554688 C 533.746094 55.960938 533.542969 56.347656 533.296875 56.710938 C 533.054688 57.078125 532.777344 57.414062 532.464844 57.722656 C 532.15625 58.035156 531.816406 58.3125 531.453125 58.554688 C 531.085938 58.800781 530.703125 59.003906 530.296875 59.171875 C 529.890625 59.34375 529.472656 59.46875 529.042969 59.554688 C 528.613281 59.640625 528.175781 59.683594 527.738281 59.683594 C 527.300781 59.683594 526.863281 59.640625 526.433594 59.554688 C 526.003906 59.46875 525.585938 59.34375 525.179688 59.171875 C 524.773438 59.003906 524.390625 58.800781 524.023438 58.554688 C 523.660156 58.3125 523.320312 58.035156 523.011719 57.722656 C 522.699219 57.414062 522.421875 57.078125 522.179688 56.710938 C 521.933594 56.347656 521.730469 55.960938 521.5625 55.554688 C 521.394531 55.148438 521.265625 54.730469 521.179688 54.300781 C 521.09375 53.871094 521.050781 53.4375 521.050781 52.996094 C 521.050781 52.558594 521.09375 52.125 521.179688 51.691406 C 521.265625 51.261719 521.394531 50.84375 521.5625 50.4375 C 521.730469 50.03125 521.933594 49.648438 522.179688 49.28125 C 522.421875 48.917969 522.699219 48.578125 523.011719 48.269531 C 523.320312 47.957031 523.660156 47.683594 524.023438 47.4375 C 524.390625 47.195312 524.773438 46.988281 525.179688 46.820312 C 525.585938 46.652344 526.003906 46.523438 526.433594 46.441406 C 526.863281 46.355469 527.300781 46.3125 527.738281 46.3125 C 528.175781 46.3125 528.613281 46.355469 529.042969 46.441406 C 529.472656 46.523438 529.890625 46.652344 530.296875 46.820312 C 530.703125 46.988281 531.085938 47.195312 531.453125 47.4375 C 531.816406 47.683594 532.15625 47.957031 532.464844 48.269531 C 532.777344 48.578125 533.054688 48.917969 533.296875 49.28125 C 533.542969 49.648438 533.746094 50.03125 533.914062 50.4375 C 534.082031 50.84375 534.210938 51.261719 534.296875 51.691406 C 534.382812 52.125 534.425781 52.558594 534.425781 52.996094 Z M 444.164062 39.625 L 444.164062 66.367188 C 444.164062 66.8125 444.082031 67.238281 443.910156 67.648438 C 443.742188 68.058594 443.5 68.417969 443.1875 68.730469 C 442.871094 69.046875 442.511719 69.289062 442.101562 69.457031 C 441.691406 69.625 441.265625 69.710938 440.824219 69.710938 C 440.378906 69.710938 439.953125 69.625 439.542969 69.457031 C 439.132812 69.289062 438.773438 69.046875 438.457031 68.730469 C 438.144531 68.417969 437.902344 68.058594 437.734375 67.648438 C 437.5625 67.238281 437.480469 66.8125 437.480469 66.367188 L 437.480469 39.625 C 437.480469 39.183594 437.5625 38.753906 437.734375 38.347656 C 437.902344 37.9375 438.144531 37.574219 438.457031 37.261719 C 438.773438 36.949219 439.132812 36.707031 439.542969 36.535156 C 439.953125 36.367188 440.378906 36.28125 440.824219 36.28125 C 441.265625 36.28125 441.691406 36.367188 442.101562 36.535156 C 442.511719 36.707031 442.871094 36.949219 443.1875 37.261719 C 443.5 37.574219 443.742188 37.9375 443.910156 38.347656 C 444.082031 38.753906 444.164062 39.183594 444.164062 39.625 Z M 577.882812 39.625 L 577.882812 66.367188 C 577.882812 66.8125 577.796875 67.238281 577.628906 67.648438 C 577.457031 68.058594 577.214844 68.417969 576.902344 68.730469 C 576.589844 69.046875 576.226562 69.289062 575.816406 69.457031 C 575.410156 69.625 574.980469 69.710938 574.539062 69.710938 C 574.09375 69.710938 573.667969 69.625 573.257812 69.457031 C 572.851562 69.289062 572.488281 69.046875 572.175781 68.730469 C 571.863281 68.417969 571.621094 68.058594 571.449219 67.648438 C 571.28125 67.238281 571.195312 66.8125 571.195312 66.367188 L 571.195312 39.625 C 571.195312 39.183594 571.28125 38.753906 571.449219 38.347656 C 571.621094 37.9375 571.863281 37.574219 572.175781 37.261719 C 572.488281 36.949219 572.851562 36.707031 573.257812 36.535156 C 573.667969 36.367188 574.09375 36.28125 574.539062 36.28125 C 574.980469 36.28125 575.410156 36.367188 575.816406 36.535156 C 576.226562 36.707031 576.589844 36.949219 576.902344 37.261719 C 577.214844 37.574219 577.457031 37.9375 577.628906 38.347656 C 577.796875 38.753906 577.882812 39.183594 577.882812 39.625 Z M 577.882812 39.625 " fill-opacity="1" fill-rule="nonzero"/></g><g fill="#ffffff" fill-opacity="1"><g transform="translate(0, 194.061079)"><g><path d="M 61.828125 -64.640625 C 62.140625 -64.640625 62.582031 -64.492188 63.15625 -64.203125 C 63.726562 -63.921875 64.015625 -63.15625 64.015625 -61.90625 L 64.015625 -10.046875 C 64.015625 -6.222656 63.46875 -3.609375 62.375 -2.203125 C 61.269531 -0.679688 59.566406 0.078125 57.265625 0.078125 L 51.546875 0.078125 C 50.492188 0.078125 49.601562 0 48.875 -0.15625 C 48.507812 -0.257812 48.144531 -0.375 47.78125 -0.5 C 47.414062 -0.632812 47.078125 -0.804688 46.765625 -1.015625 C 46.128906 -1.378906 45.550781 -1.957031 45.03125 -2.75 C 44.769531 -3.113281 44.484375 -3.53125 44.171875 -4 C 43.859375 -4.46875 43.546875 -5.019531 43.234375 -5.65625 L 18.359375 -49.734375 C 18.304688 -49.835938 18.253906 -49.898438 18.203125 -49.921875 C 18.148438 -49.953125 18.125 -49.96875 18.125 -49.96875 L 17.734375 -49.96875 C 17.734375 -49.96875 17.734375 -49.953125 17.734375 -49.921875 C 17.734375 -49.898438 17.734375 -49.863281 17.734375 -49.8125 L 17.734375 -2.671875 C 17.734375 -1.460938 17.457031 -0.703125 16.90625 -0.390625 C 16.351562 -0.078125 15.894531 0.078125 15.53125 0.078125 L 8.546875 0.078125 C 8.179688 0.078125 7.710938 -0.078125 7.140625 -0.390625 C 6.566406 -0.703125 6.28125 -1.460938 6.28125 -2.671875 L 6.28125 -54.53125 C 6.28125 -58.34375 6.828125 -60.984375 7.921875 -62.453125 C 9.078125 -63.910156 10.773438 -64.640625 13.015625 -64.640625 L 18.90625 -64.640625 C 19.425781 -64.640625 19.921875 -64.625 20.390625 -64.59375 C 20.867188 -64.570312 21.289062 -64.535156 21.65625 -64.484375 C 22.488281 -64.328125 23.21875 -64.015625 23.84375 -63.546875 C 24.375 -63.179688 24.925781 -62.582031 25.5 -61.75 C 25.757812 -61.375 26.03125 -60.953125 26.3125 -60.484375 C 26.601562 -60.015625 26.90625 -59.492188 27.21875 -58.921875 L 52.015625 -14.828125 C 52.066406 -14.671875 52.144531 -14.59375 52.25 -14.59375 L 52.640625 -14.59375 C 52.640625 -14.644531 52.640625 -14.671875 52.640625 -14.671875 C 52.640625 -14.671875 52.640625 -14.695312 52.640625 -14.75 L 52.640625 -61.90625 C 52.640625 -63.15625 52.914062 -63.921875 53.46875 -64.203125 C 54.019531 -64.492188 54.476562 -64.640625 54.84375 -64.640625 Z M 61.828125 -64.640625 "/></g></g></g><g fill="#ffffff" fill-opacity="1"><g transform="translate(74.199528, 194.061079)"><g><path d="M 60.484375 -64.640625 C 60.847656 -64.640625 61.304688 -64.492188 61.859375 -64.203125 C 62.410156 -63.921875 62.6875 -63.179688 62.6875 -61.984375 L 62.6875 -24.5625 C 62.6875 -22.363281 62.609375 -20.320312 62.453125 -18.4375 C 62.296875 -16.550781 62.035156 -14.851562 61.671875 -13.34375 C 60.929688 -10.09375 59.804688 -7.53125 58.296875 -5.65625 C 56.773438 -3.664062 54.734375 -2.195312 52.171875 -1.25 C 49.816406 -0.414062 46.863281 0 43.3125 0 L 25.65625 0 C 22.09375 0 19.132812 -0.414062 16.78125 -1.25 C 15.582031 -1.726562 14.457031 -2.332031 13.40625 -3.0625 C 12.363281 -3.789062 11.476562 -4.65625 10.75 -5.65625 C 9.125 -7.632812 7.972656 -10.195312 7.296875 -13.34375 C 6.929688 -14.851562 6.671875 -16.550781 6.515625 -18.4375 C 6.359375 -20.320312 6.28125 -22.363281 6.28125 -24.5625 L 6.28125 -61.984375 C 6.28125 -63.179688 6.566406 -63.921875 7.140625 -64.203125 C 7.710938 -64.492188 8.179688 -64.640625 8.546875 -64.640625 L 15.6875 -64.640625 C 16.050781 -64.640625 16.507812 -64.492188 17.0625 -64.203125 C 17.613281 -63.921875 17.890625 -63.179688 17.890625 -61.984375 L 17.890625 -23.296875 C 17.890625 -22.148438 17.925781 -21.066406 18 -20.046875 C 18.082031 -19.023438 18.175781 -18.148438 18.28125 -17.421875 C 18.59375 -16.003906 19.035156 -14.828125 19.609375 -13.890625 C 20.242188 -13.097656 21.03125 -12.519531 21.96875 -12.15625 C 22.488281 -12 23.085938 -11.867188 23.765625 -11.765625 C 24.453125 -11.660156 25.210938 -11.609375 26.046875 -11.609375 L 43 -11.609375 C 43.832031 -11.609375 44.585938 -11.660156 45.265625 -11.765625 C 45.941406 -11.867188 46.546875 -12 47.078125 -12.15625 C 48.015625 -12.519531 48.796875 -13.097656 49.421875 -13.890625 C 49.679688 -14.304688 49.929688 -14.8125 50.171875 -15.40625 C 50.410156 -16.007812 50.582031 -16.679688 50.6875 -17.421875 C 50.789062 -18.148438 50.878906 -19.023438 50.953125 -20.046875 C 51.035156 -21.066406 51.078125 -22.148438 51.078125 -23.296875 L 51.078125 -61.984375 C 51.078125 -63.179688 51.347656 -63.921875 51.890625 -64.203125 C 52.441406 -64.492188 52.898438 -64.640625 53.265625 -64.640625 Z M 60.484375 -64.640625 "/></g></g></g><g fill="#ffffff" fill-opacity="1"><g transform="translate(147.065677, 194.061079)"><g><path d="M 60.484375 -64.640625 C 60.847656 -64.640625 61.316406 -64.492188 61.890625 -64.203125 C 62.472656 -63.921875 62.765625 -63.179688 62.765625 -61.984375 L 62.765625 -55.859375 C 62.765625 -54.546875 62.472656 -53.742188 61.890625 -53.453125 C 61.316406 -53.171875 60.847656 -53.03125 60.484375 -53.03125 L 40.328125 -53.03125 L 40.328125 -2.671875 C 40.328125 -1.460938 40.050781 -0.710938 39.5 -0.421875 C 38.945312 -0.140625 38.488281 0 38.125 0 L 30.90625 0 C 30.59375 0 30.148438 -0.140625 29.578125 -0.421875 C 29.003906 -0.710938 28.71875 -1.460938 28.71875 -2.671875 L 28.71875 -53.03125 L 8.546875 -53.03125 C 8.179688 -53.03125 7.710938 -53.171875 7.140625 -53.453125 C 6.566406 -53.742188 6.28125 -54.546875 6.28125 -55.859375 L 6.28125 -61.984375 C 6.28125 -63.179688 6.566406 -63.921875 7.140625 -64.203125 C 7.710938 -64.492188 8.179688 -64.640625 8.546875 -64.640625 Z M 60.484375 -64.640625 "/></g></g></g><g fill="#ffffff" fill-opacity="1"><g transform="translate(220.010252, 194.061079)"><g><path d="M 59.78125 -45.890625 L 59.78125 -45.421875 C 59.78125 -45.472656 59.78125 -45.507812 59.78125 -45.53125 C 59.78125 -45.5625 59.78125 -45.601562 59.78125 -45.65625 C 59.78125 -45.707031 59.78125 -45.742188 59.78125 -45.765625 C 59.78125 -45.796875 59.78125 -45.835938 59.78125 -45.890625 Z M 61.265625 -3.375 C 61.585938 -2.957031 61.691406 -2.328125 61.578125 -1.484375 C 61.421875 -0.441406 60.820312 0.078125 59.78125 0.078125 L 51.15625 0.078125 C 50.46875 0.078125 49.914062 -0.078125 49.5 -0.390625 C 49.34375 -0.492188 49.195312 -0.648438 49.0625 -0.859375 C 48.9375 -1.066406 48.796875 -1.273438 48.640625 -1.484375 L 34.4375 -26.671875 L 17.890625 -26.671875 L 17.890625 -2.671875 C 17.890625 -1.460938 17.613281 -0.703125 17.0625 -0.390625 C 16.507812 -0.078125 16.050781 0.078125 15.6875 0.078125 L 8.546875 0.078125 C 8.179688 0.078125 7.710938 -0.078125 7.140625 -0.390625 C 6.566406 -0.703125 6.28125 -1.460938 6.28125 -2.671875 L 6.28125 -35.625 C 6.28125 -36.820312 6.566406 -37.5625 7.140625 -37.84375 C 7.710938 -38.132812 8.179688 -38.28125 8.546875 -38.28125 L 42.671875 -38.28125 C 44.660156 -38.28125 46.050781 -38.859375 46.84375 -40.015625 C 47.675781 -41.160156 48.09375 -43.039062 48.09375 -45.65625 C 48.09375 -48.269531 47.675781 -50.15625 46.84375 -51.3125 C 46.050781 -52.457031 44.660156 -53.03125 42.671875 -53.03125 L 8.546875 -53.03125 C 8.179688 -53.03125 7.710938 -53.171875 7.140625 -53.453125 C 6.566406 -53.742188 6.28125 -54.492188 6.28125 -55.703125 L 6.28125 -61.90625 C 6.28125 -63.15625 6.566406 -63.921875 7.140625 -64.203125 C 7.710938 -64.492188 8.179688 -64.640625 8.546875 -64.640625 L 44.71875 -64.640625 C 50.101562 -64.640625 53.972656 -62.96875 56.328125 -59.625 C 58.578125 -56.382812 59.726562 -51.726562 59.78125 -45.65625 C 59.726562 -39.59375 58.578125 -34.9375 56.328125 -31.6875 C 54.335938 -28.96875 51.410156 -27.375 47.546875 -26.90625 Z M 61.265625 -3.375 "/></g></g></g><g fill="#ffffff" fill-opacity="1"><g transform="translate(291.856727, 194.061079)"><g><path d="M 15.6875 -64.640625 C 16 -64.640625 16.441406 -64.484375 17.015625 -64.171875 C 17.597656 -63.859375 17.890625 -63.101562 17.890625 -61.90625 L 17.890625 -2.671875 C 17.890625 -1.460938 17.597656 -0.703125 17.015625 -0.390625 C 16.441406 -0.078125 16 0.078125 15.6875 0.078125 L 8.46875 0.078125 C 8.15625 0.078125 7.710938 -0.078125 7.140625 -0.390625 C 6.566406 -0.703125 6.28125 -1.460938 6.28125 -2.671875 L 6.28125 -61.90625 C 6.28125 -63.101562 6.566406 -63.859375 7.140625 -64.171875 C 7.710938 -64.484375 8.15625 -64.640625 8.46875 -64.640625 Z M 15.6875 -64.640625 "/></g></g></g><g fill="#ffffff" fill-opacity="1"><g transform="translate(319.936465, 194.061079)"><g><path d="M 44.71875 -64.640625 C 50.050781 -64.640625 53.894531 -62.96875 56.25 -59.625 C 58.550781 -56.488281 59.703125 -51.753906 59.703125 -45.421875 L 59.703125 -45.890625 C 59.703125 -39.671875 58.550781 -34.9375 56.25 -31.6875 C 53.894531 -28.394531 50.050781 -26.75 44.71875 -26.75 L 17.890625 -26.671875 L 17.890625 -2.671875 C 17.890625 -1.460938 17.597656 -0.703125 17.015625 -0.390625 C 16.441406 -0.078125 16 0.078125 15.6875 0.078125 L 8.46875 0.078125 C 8.15625 0.078125 7.710938 -0.078125 7.140625 -0.390625 C 6.566406 -0.703125 6.28125 -1.460938 6.28125 -2.671875 L 6.28125 -35.625 C 6.28125 -36.820312 6.566406 -37.5625 7.140625 -37.84375 C 7.710938 -38.132812 8.15625 -38.28125 8.46875 -38.28125 L 42.671875 -38.28125 C 44.660156 -38.28125 46.050781 -38.859375 46.84375 -40.015625 C 47.675781 -41.160156 48.09375 -43.039062 48.09375 -45.65625 C 48.09375 -48.269531 47.675781 -50.15625 46.84375 -51.3125 C 46.050781 -52.457031 44.660156 -53.03125 42.671875 -53.03125 L 8.46875 -53.03125 C 8.15625 -53.03125 7.710938 -53.171875 7.140625 -53.453125 C 6.566406 -53.742188 6.28125 -54.492188 6.28125 -55.703125 L 6.28125 -61.90625 C 6.28125 -63.15625 6.566406 -63.921875 7.140625 -64.203125 C 7.710938 -64.492188 8.15625 -64.640625 8.46875 -64.640625 Z M 44.71875 -64.640625 "/></g></g></g><g fill="#ffffff" fill-opacity="1"><g transform="translate(389.822084, 194.061079)"><g><path d="M 60.484375 -64.640625 C 60.847656 -64.640625 61.304688 -64.492188 61.859375 -64.203125 C 62.410156 -63.921875 62.6875 -63.179688 62.6875 -61.984375 L 62.6875 -24.5625 C 62.6875 -22.363281 62.609375 -20.320312 62.453125 -18.4375 C 62.296875 -16.550781 62.035156 -14.851562 61.671875 -13.34375 C 60.929688 -10.09375 59.804688 -7.53125 58.296875 -5.65625 C 56.773438 -3.664062 54.734375 -2.195312 52.171875 -1.25 C 49.816406 -0.414062 46.863281 0 43.3125 0 L 25.65625 0 C 22.09375 0 19.132812 -0.414062 16.78125 -1.25 C 15.582031 -1.726562 14.457031 -2.332031 13.40625 -3.0625 C 12.363281 -3.789062 11.476562 -4.65625 10.75 -5.65625 C 9.125 -7.632812 7.972656 -10.195312 7.296875 -13.34375 C 6.929688 -14.851562 6.671875 -16.550781 6.515625 -18.4375 C 6.359375 -20.320312 6.28125 -22.363281 6.28125 -24.5625 L 6.28125 -61.984375 C 6.28125 -63.179688 6.566406 -63.921875 7.140625 -64.203125 C 7.710938 -64.492188 8.179688 -64.640625 8.546875 -64.640625 L 15.6875 -64.640625 C 16.050781 -64.640625 16.507812 -64.492188 17.0625 -64.203125 C 17.613281 -63.921875 17.890625 -63.179688 17.890625 -61.984375 L 17.890625 -23.296875 C 17.890625 -22.148438 17.925781 -21.066406 18 -20.046875 C 18.082031 -19.023438 18.175781 -18.148438 18.28125 -17.421875 C 18.59375 -16.003906 19.035156 -14.828125 19.609375 -13.890625 C 20.242188 -13.097656 21.03125 -12.519531 21.96875 -12.15625 C 22.488281 -12 23.085938 -11.867188 23.765625 -11.765625 C 24.453125 -11.660156 25.210938 -11.609375 26.046875 -11.609375 L 43 -11.609375 C 43.832031 -11.609375 44.585938 -11.660156 45.265625 -11.765625 C 45.941406 -11.867188 46.546875 -12 47.078125 -12.15625 C 48.015625 -12.519531 48.796875 -13.097656 49.421875 -13.890625 C 49.679688 -14.304688 49.929688 -14.8125 50.171875 -15.40625 C 50.410156 -16.007812 50.582031 -16.679688 50.6875 -17.421875 C 50.789062 -18.148438 50.878906 -19.023438 50.953125 -20.046875 C 51.035156 -21.066406 51.078125 -22.148438 51.078125 -23.296875 L 51.078125 -61.984375 C 51.078125 -63.179688 51.347656 -63.921875 51.890625 -64.203125 C 52.441406 -64.492188 52.898438 -64.640625 53.265625 -64.640625 Z M 60.484375 -64.640625 "/></g></g></g><g fill="#ffffff" fill-opacity="1"><g transform="translate(462.688233, 194.061079)"><g><path d="M 51.546875 -11.609375 C 51.910156 -11.609375 52.363281 -11.453125 52.90625 -11.140625 C 53.457031 -10.828125 53.734375 -10.066406 53.734375 -8.859375 L 53.734375 -2.671875 C 53.734375 -1.460938 53.457031 -0.703125 52.90625 -0.390625 C 52.363281 -0.078125 51.910156 0.078125 51.546875 0.078125 L 25.65625 0.078125 C 22.195312 0.078125 19.269531 -0.363281 16.875 -1.25 C 14.414062 -2.09375 12.375 -3.5625 10.75 -5.65625 C 9.226562 -7.53125 8.101562 -10.09375 7.375 -13.34375 C 6.644531 -16.53125 6.28125 -20.269531 6.28125 -24.5625 L 6.28125 -61.90625 C 6.28125 -63.15625 6.566406 -63.921875 7.140625 -64.203125 C 7.710938 -64.492188 8.179688 -64.640625 8.546875 -64.640625 L 15.765625 -64.640625 C 16.078125 -64.640625 16.519531 -64.492188 17.09375 -64.203125 C 17.675781 -63.921875 17.96875 -63.15625 17.96875 -61.90625 L 17.96875 -23.21875 C 17.96875 -22.070312 17.992188 -21 18.046875 -20 C 18.097656 -19.007812 18.203125 -18.125 18.359375 -17.34375 C 18.566406 -15.925781 19.007812 -14.773438 19.6875 -13.890625 C 20.207031 -13.046875 20.96875 -12.46875 21.96875 -12.15625 C 23.007812 -11.789062 24.367188 -11.609375 26.046875 -11.609375 Z M 51.546875 -11.609375 "/></g></g></g><g fill="#ffffff" fill-opacity="1"><g transform="translate(526.612735, 194.061079)"><g><path d="M 44.171875 -38.59375 C 48.242188 -38.59375 51.351562 -37.15625 53.5 -34.28125 C 55.539062 -31.457031 56.5625 -27.484375 56.5625 -22.359375 L 56.5625 -15.453125 C 56.5625 -10.953125 55.566406 -7.265625 53.578125 -4.390625 C 51.546875 -1.460938 48.359375 0 44.015625 0 L 8.625 0 C 8.257812 0 7.789062 -0.140625 7.21875 -0.421875 C 6.644531 -0.710938 6.359375 -1.460938 6.359375 -2.671875 L 6.359375 -8.9375 C 6.359375 -10.144531 6.644531 -10.890625 7.21875 -11.171875 C 7.789062 -11.460938 8.257812 -11.609375 8.625 -11.609375 L 42.125 -11.609375 C 42.8125 -11.609375 43.296875 -11.722656 43.578125 -11.953125 C 43.867188 -12.191406 44.09375 -12.414062 44.25 -12.625 C 44.71875 -13.414062 44.953125 -14.515625 44.953125 -15.921875 L 44.953125 -22.671875 C 44.953125 -24.609375 44.640625 -25.8125 44.015625 -26.28125 C 43.390625 -26.75 42.785156 -26.984375 42.203125 -26.984375 L 18.671875 -26.984375 C 17.046875 -26.984375 15.382812 -27.191406 13.6875 -27.609375 C 11.988281 -28.035156 10.535156 -29.054688 9.328125 -30.671875 C 7.296875 -33.546875 6.28125 -37.734375 6.28125 -43.234375 L 6.28125 -49.1875 C 6.28125 -53.789062 7.296875 -57.503906 9.328125 -60.328125 C 11.367188 -63.203125 14.535156 -64.640625 18.828125 -64.640625 L 52.640625 -64.640625 C 52.953125 -64.640625 53.394531 -64.492188 53.96875 -64.203125 C 54.550781 -63.921875 54.84375 -63.179688 54.84375 -61.984375 L 54.84375 -55.703125 C 54.84375 -54.492188 54.550781 -53.742188 53.96875 -53.453125 C 53.394531 -53.171875 52.953125 -53.03125 52.640625 -53.03125 L 20.71875 -53.03125 C 20.03125 -53.03125 19.539062 -52.925781 19.25 -52.71875 C 18.96875 -52.507812 18.75 -52.273438 18.59375 -52.015625 C 18.175781 -51.179688 17.96875 -50.082031 17.96875 -48.71875 L 17.96875 -42.90625 C 17.96875 -40.976562 18.265625 -39.773438 18.859375 -39.296875 C 19.460938 -38.828125 20.054688 -38.59375 20.640625 -38.59375 Z M 44.171875 -38.59375 "/></g></g></g><g fill="#ffffff" fill-opacity="1"><g transform="translate(593.360974, 194.061079)"><g><path d="M 53.421875 -14.046875 C 53.785156 -14.046875 54.253906 -13.898438 54.828125 -13.609375 C 55.410156 -13.328125 55.703125 -12.582031 55.703125 -11.375 L 55.703125 -2.75 C 55.703125 -1.539062 55.410156 -0.789062 54.828125 -0.5 C 54.253906 -0.21875 53.785156 -0.078125 53.421875 -0.078125 L 25.578125 -0.078125 C 23.847656 -0.078125 22.25 -0.179688 20.78125 -0.390625 C 19.320312 -0.597656 17.988281 -0.9375 16.78125 -1.40625 C 14.21875 -2.300781 12.179688 -3.742188 10.671875 -5.734375 C 9.097656 -7.765625 7.972656 -10.328125 7.296875 -13.421875 C 7.035156 -14.722656 6.8125 -16.15625 6.625 -17.71875 C 6.445312 -19.289062 6.332031 -20.992188 6.28125 -22.828125 L 6.28125 -23.21875 L 6.4375 -33.109375 C 6.59375 -33.679688 6.878906 -34.332031 7.296875 -35.0625 C 8.441406 -37.101562 10.21875 -38.203125 12.625 -38.359375 L 53.109375 -38.4375 C 53.421875 -38.4375 53.863281 -38.289062 54.4375 -38 C 55.019531 -37.71875 55.3125 -36.976562 55.3125 -35.78125 L 55.3125 -29.578125 C 55.3125 -28.367188 55.019531 -27.609375 54.4375 -27.296875 C 53.863281 -26.984375 53.421875 -26.828125 53.109375 -26.828125 L 18.046875 -26.828125 C 18.046875 -26.828125 18.03125 -26.539062 18 -25.96875 C 17.976562 -25.394531 17.953125 -24.738281 17.921875 -24 C 17.898438 -23.269531 17.890625 -22.617188 17.890625 -22.046875 C 17.890625 -21.472656 17.890625 -21.1875 17.890625 -21.1875 C 17.941406 -20.976562 17.96875 -20.753906 17.96875 -20.515625 C 17.96875 -20.273438 17.992188 -20.050781 18.046875 -19.84375 C 18.253906 -18.382812 18.695312 -17.207031 19.375 -16.3125 C 20 -15.53125 20.785156 -14.957031 21.734375 -14.59375 C 22.304688 -14.4375 22.921875 -14.304688 23.578125 -14.203125 C 24.234375 -14.097656 24.976562 -14.046875 25.8125 -14.046875 Z M 13.1875 -37.734375 Z M 53.5 -64.796875 C 53.8125 -64.796875 54.253906 -64.640625 54.828125 -64.328125 C 55.410156 -64.015625 55.703125 -63.257812 55.703125 -62.0625 L 55.703125 -55.859375 C 55.703125 -54.648438 55.410156 -53.890625 54.828125 -53.578125 C 54.253906 -53.265625 53.8125 -53.109375 53.5 -53.109375 L 8.390625 -53.1875 C 8.078125 -53.1875 7.644531 -53.328125 7.09375 -53.609375 C 6.550781 -53.898438 6.28125 -54.648438 6.28125 -55.859375 L 6.28125 -61.984375 C 6.28125 -63.234375 6.550781 -64.015625 7.09375 -64.328125 C 7.644531 -64.640625 8.078125 -64.796875 8.390625 -64.796875 Z M 53.5 -64.796875 "/></g></g></g><g fill="#ffffff" fill-opacity="1"><g transform="translate(659.246424, 194.061079)"><g/></g></g><g fill="#ffffff" fill-opacity="1"><g transform="translate(703.483785, 194.061079)"><g><path d="M 48.328125 -57.34375 L 70.375 -2.984375 C 70.6875 -2.253906 70.765625 -1.625 70.609375 -1.09375 C 70.554688 -0.882812 70.410156 -0.632812 70.171875 -0.34375 C 69.941406 -0.0625 69.507812 0.078125 68.875 0.078125 L 60.484375 0.078125 C 59.390625 0.078125 58.632812 -0.492188 58.21875 -1.640625 L 38.75 -50.203125 C 38.695312 -50.304688 38.671875 -50.359375 38.671875 -50.359375 L 38.359375 -50.359375 C 38.359375 -50.359375 38.34375 -50.34375 38.3125 -50.3125 C 38.289062 -50.289062 38.253906 -50.226562 38.203125 -50.125 L 28.171875 -24.71875 L 37.890625 -24.71875 C 38.992188 -24.71875 39.753906 -24.191406 40.171875 -23.140625 L 43 -16.15625 C 43.257812 -15.269531 43.148438 -14.515625 42.671875 -13.890625 C 42.253906 -13.148438 41.578125 -12.78125 40.640625 -12.78125 L 23.453125 -12.78125 L 18.984375 -1.5625 C 18.566406 -0.46875 17.832031 0.078125 16.78125 0.078125 L 8.15625 0.078125 C 7.53125 0.078125 7.097656 -0.0625 6.859375 -0.34375 C 6.628906 -0.632812 6.488281 -0.882812 6.4375 -1.09375 C 6.28125 -1.5625 6.332031 -2.191406 6.59375 -2.984375 L 28.484375 -57.34375 C 29.523438 -60.113281 30.675781 -62.023438 31.9375 -63.078125 C 32.09375 -63.179688 32.273438 -63.3125 32.484375 -63.46875 C 32.691406 -63.625 32.898438 -63.753906 33.109375 -63.859375 C 34.671875 -64.960938 36.472656 -65.515625 38.515625 -65.515625 C 40.660156 -65.515625 42.597656 -64.859375 44.328125 -63.546875 C 46.054688 -62.234375 47.234375 -60.5625 47.859375 -58.53125 C 47.960938 -58.375 48.050781 -58.1875 48.125 -57.96875 C 48.207031 -57.757812 48.273438 -57.550781 48.328125 -57.34375 Z M 48.328125 -57.34375 "/></g></g></g><g fill="#ffffff" fill-opacity="1"><g transform="translate(784.428731, 194.061079)"><g><path d="M 15.6875 -64.640625 C 16 -64.640625 16.441406 -64.484375 17.015625 -64.171875 C 17.597656 -63.859375 17.890625 -63.101562 17.890625 -61.90625 L 17.890625 -2.671875 C 17.890625 -1.460938 17.597656 -0.703125 17.015625 -0.390625 C 16.441406 -0.078125 16 0.078125 15.6875 0.078125 L 8.46875 0.078125 C 8.15625 0.078125 7.710938 -0.078125 7.140625 -0.390625 C 6.566406 -0.703125 6.28125 -1.460938 6.28125 -2.671875 L 6.28125 -61.90625 C 6.28125 -63.101562 6.566406 -63.859375 7.140625 -64.171875 C 7.710938 -64.484375 8.15625 -64.640625 8.46875 -64.640625 Z M 15.6875 -64.640625 "/></g></g></g></svg>